<svg xmlns="http://www.w3.org/2000/svg" width="24" height="24" fill="#cecece">
    <path d="M21.45 3.377c-.485-.415-1.209-.492-1.935-.205-.45.177-7.501 3.144-14.074 5.911l-2.171.914c-.841.341-1.267.894-1.267 1.641 0 .523.222 1.234 1.278 1.652l3.667 1.467c.317.951 1.053 3.159 1.238 3.746.11.348.388 1.225 1.09 1.43.144.049.294.074.447.074.443 0 .762-.206.918-.326l2.329-1.97 2.831 2.617c.109.111.685.672 1.46.672.967 0 1.701-.805 1.854-1.584.083-.427 2.812-14.129 2.812-14.127.245-1.099-.194-1.669-.477-1.912zm-4.284 15.489-4.137-3.826-3.03 2.565c-.359-1.107-1.301-3.922-1.301-3.922l-.146-.439-4.021-1.608 1.687-.709c4.299-1.81 11.956-5.033 13.692-5.755-.377 1.89-2.432 12.207-2.744 13.694z"/>
    <path d="M16.8 8c-.125 0-.294.119-.384.175-1.288.803-7.746 4.478-9.517 5.484L7.75 14s1.151 3.445 1.39 4.2c.239.756.431.774.431.774a.382.382 0 0 0 .153.032c.039 0 .066-.014.099-.023L11 14.375s5.363-5.428 5.686-5.744c.26-.253.314-.342.314-.43 0-.117-.061-.201-.2-.201z"/>
</svg>
